# xmcd
#
# Track frame offsets:
# 150
# 10973
# 25473
# 38800
# 47840
# 58320
# 69373
# 82843
# 101635
# 115970
# 128403
# 139983
# 155298
# 168290
# 184120
# 195275
# 205128
# 216510
# 227790
#
# Disc length: 3183 seconds
#
#
# Revision: 8
# Processed by: cddbd v1.5.2PL0 Copyright (c) Steve Scherf et al.
# Submitted via: FreeRIP 2.951 
#
DISCID=060c6d13
DTITLE=Various Artist - Five Ladies of Country Music
DYEAR=1994
DGENRE=Country
TTITLE0=Billie Jo Spears - I'm So Lonesome I Could Cry
TTITLE1=Billie Jo Spears - Which Way Are You Going Billy
TTITLE2=Billie Jo Spears - It Coulda Been Me
TTITLE3=Billie Jo Spears - You're My Man
TTITLE4=Billie Jo Spears - It Makes No Difference Now
TTITLE5=Jo Ann Steele - Unless You Stop Hurting Me Now
TTITLE6=Jo Ann Steele - I Cry A Lot In Scool
TTITLE7=Jo Ann Steele - Beginning Of Goodbye
TTITLE8=Jo Ann Steele - Loving You Lovin' Me
TTITLE9=Dottie West - Crazy
TTITLE10=Dottie West - Heartbreak U.S.A.
TTITLE11=Dottie West - My Big John
TTITLE12=Dottie West - I Fall To Pieces
TTITLE13=Jeannie C. Riley - The Cotton Patch
TTITLE14=Jeannie C. Riley - Box Of Memories
TTITLE15=Jeannie C. Riley - He Made A Woman Out Of Me
TTITLE16=Patsy Cline - Hidin' Out
TTITLE17=Patsy Cline - I Can't Forget
TTITLE18=Patsy Cline - Stop The World (And Let Me Off)
EXTD=
EXTT0=
EXTT1=
EXTT2=
EXTT3=
EXTT4=
EXTT5=
EXTT6=
EXTT7=
EXTT8=
EXTT9=
EXTT10=
EXTT11=
EXTT12=
EXTT13=
EXTT14=
EXTT15=
EXTT16=
EXTT17=
EXTT18=
PLAYORDER=
